<svg xmlns="http://www.w3.org/2000/svg" width="1024" height="500" viewBox="0 0 1024 500">
  <defs>
    <linearGradient id="background" x1="0" y1="0" x2="1" y2="1">
      <stop offset="0" stop-color="#0C1527"/>
      <stop offset="1" stop-color="#172642"/>
    </linearGradient>
    <linearGradient id="glow" x1="0" y1="0" x2="1" y2="0">
      <stop offset="0" stop-color="#FFB13B" stop-opacity=".4"/>
      <stop offset="1" stop-color="#FFB13B" stop-opacity="0"/>
    </linearGradient>
    <filter id="shadow" x="-30%" y="-30%" width="160%" height="160%">
      <feDropShadow dx="0" dy="14" stdDeviation="18" flood-color="#050A13" flood-opacity=".55"/>
    </filter>
  </defs>
  <rect width="1024" height="500" fill="url(#background)"/>
  <circle cx="914" cy="-2" r="250" fill="#FFB13B" opacity=".055"/>
  <circle cx="1004" cy="462" r="230" fill="#FFB13B" opacity=".045"/>
  <rect x="0" y="436" width="650" height="64" fill="url(#glow)" opacity=".45"/>

  <g transform="translate(72 76)" filter="url(#shadow)">
    <rect width="222" height="222" rx="50" fill="#10213F"/>
    <path fill="#FFF7E8" d="M78 47h53l33 33v77c0 13-10 23-23 23H80c-13 0-23-10-23-23V70c0-13 10-23 21-23Z"/>
    <path fill="#FFD493" d="M131 47v21c0 7 5 12 12 12h21Z"/>
    <g fill="#FFB13B">
      <rect x="74" y="111" width="13" height="28" rx="6.5"/>
      <rect x="92" y="98" width="13" height="54" rx="6.5"/>
      <rect x="109" y="85" width="13" height="80" rx="6.5"/>
      <rect x="126" y="98" width="13" height="54" rx="6.5"/>
      <rect x="145" y="111" width="13" height="28" rx="6.5"/>
    </g>
  </g>

  <g fill="#FFB13B" opacity=".9">
    <rect x="337" y="112" width="7" height="34" rx="3.5"/>
    <rect x="354" y="97" width="7" height="64" rx="3.5"/>
    <rect x="371" y="78" width="7" height="102" rx="3.5"/>
    <rect x="388" y="97" width="7" height="64" rx="3.5"/>
    <rect x="405" y="112" width="7" height="34" rx="3.5"/>
  </g>

  <text x="337" y="236" fill="#FFF7E8" font-family="DejaVu Sans, Arial, sans-serif" font-size="68" font-weight="700">NoiseFile</text>
  <text x="339" y="292" fill="#FFB13B" font-family="DejaVu Sans, Arial, sans-serif" font-size="25" font-weight="700" letter-spacing=".6">KNOW THE RULE. LOG THE NOISE.</text>
  <text x="339" y="330" fill="#FFB13B" font-family="DejaVu Sans, Arial, sans-serif" font-size="25" font-weight="700" letter-spacing=".6">FILE THE COMPLAINT.</text>
  <text x="339" y="389" fill="#D7DDEA" font-family="DejaVu Sans, Arial, sans-serif" font-size="22">15 Bay Area cities · 45 local workflows · On-device</text>
</svg>
